<svg width="60" height="30" viewBox="0 0 60 30" fill="none" xmlns="http://www.w3.org/2000/svg">
<mask id="path-1-inside-1_268_149" fill="white">
<path d="M0 0H60V30H0V0Z"/>
</mask>
<path d="M0 0H60V30H0V0Z" fill="white"/>
<path d="M0 30V30.5H2.34375V30V29.5H0V30ZM5.15625 30V30.5H9.84375V30V29.5H5.15625V30ZM12.6562 30V30.5H17.3438V30V29.5H12.6562V30ZM20.1562 30V30.5H24.8438V30V29.5H20.1562V30ZM27.6562 30V30.5H32.3438V30V29.5H27.6562V30ZM35.1562 30V30.5H39.8438V30V29.5H35.1562V30ZM42.6562 30V30.5H47.3438V30V29.5H42.6562V30ZM50.1562 30V30.5H54.8438V30V29.5H50.1562V30ZM57.6562 30V30.5H60V30V29.5H57.6562V30ZM60 0V-0.5H57.6562V0V0.5H60V0ZM54.8438 0V-0.5H50.1562V0V0.5H54.8438V0ZM47.3438 0V-0.5H42.6562V0V0.5H47.3438V0ZM39.8438 0V-0.5H35.1562V0V0.5H39.8438V0ZM32.3438 0V-0.5H27.6562V0V0.5H32.3438V0ZM24.8438 0V-0.5H20.1562V0V0.5H24.8438V0ZM17.3438 0V-0.5H12.6562V0V0.5H17.3438V0ZM9.84375 0V-0.5H5.15625V0V0.5H9.84375V0ZM2.34375 0V-0.5H0V0V0.5H2.34375V0ZM0 30V31H2.34375V30V29H0V30ZM5.15625 30V31H9.84375V30V29H5.15625V30ZM12.6562 30V31H17.3438V30V29H12.6562V30ZM20.1562 30V31H24.8438V30V29H20.1562V30ZM27.6562 30V31H32.3438V30V29H27.6562V30ZM35.1562 30V31H39.8438V30V29H35.1562V30ZM42.6562 30V31H47.3438V30V29H42.6562V30ZM50.1562 30V31H54.8438V30V29H50.1562V30ZM57.6562 30V31H60V30V29H57.6562V30ZM60 0V-1H57.6562V0V1H60V0ZM54.8438 0V-1H50.1562V0V1H54.8438V0ZM47.3438 0V-1H42.6562V0V1H47.3438V0ZM39.8438 0V-1H35.1562V0V1H39.8438V0ZM32.3438 0V-1H27.6562V0V1H32.3438V0ZM24.8438 0V-1H20.1562V0V1H24.8438V0ZM17.3438 0V-1H12.6562V0V1H17.3438V0ZM9.84375 0V-1H5.15625V0V1H9.84375V0ZM2.34375 0V-1H0V0V1H2.34375V0Z" fill="black" fill-opacity="0.5" mask="url(#path-1-inside-1_268_149)"/>
</svg>
