<svg width="60" height="30" viewBox="0 0 60 30" fill="none" xmlns="http://www.w3.org/2000/svg">
<g clip-path="url(#clip0_490_591)">
<mask id="path-1-inside-1_490_591" fill="white">
<path d="M0 0H60V30H0V0Z"/>
</mask>
<path d="M0 0H60V30H0V0Z" fill="white"/>
<g opacity="0.5">
<path d="M0 3H4V13.5H0V3Z" fill="#D1D1D6"/>
<path d="M6 3H10V13.5H6V3Z" fill="#D1D1D6"/>
<path d="M12 3H16V13.5H12V3Z" fill="#D1D1D6"/>
<path d="M18 3H22V13.5H18V3Z" fill="#D1D1D6"/>
<path d="M24 3H28V13.5H24V3Z" fill="#D1D1D6"/>
<path d="M30 3H34V13.5H30V3Z" fill="#D1D1D6"/>
<path d="M36 3H40V13.5H36V3Z" fill="#D1D1D6"/>
<path d="M42 3H46V13.5H42V3Z" fill="#D1D1D6"/>
<path d="M48 3H52V13.5H48V3Z" fill="#D1D1D6"/>
<path d="M54 3H58V13.5H54V3Z" fill="#D1D1D6"/>
<path d="M60 3H64V13.5H60V3Z" fill="#D1D1D6"/>
<path d="M66 3H70V13.5H66V3Z" fill="#D1D1D6"/>
<path d="M72 3H76V13.5H72V3Z" fill="#D1D1D6"/>
<path d="M78 3H82V13.5H78V3Z" fill="#D1D1D6"/>
<path d="M84 3H88V13.5H84V3Z" fill="#D1D1D6"/>
<path d="M90 3H94V13.5H90V3Z" fill="#D1D1D6"/>
<path d="M96 3H100V13.5H96V3Z" fill="#D1D1D6"/>
<path d="M102 3H106V13.5H102V3Z" fill="#D1D1D6"/>
<path d="M108 3H112V13.5H108V3Z" fill="#D1D1D6"/>
<path d="M114 3H118V13.5H114V3Z" fill="#D1D1D6"/>
<path d="M120 3H124V13.5H120V3Z" fill="#D1D1D6"/>
<path d="M126 3H130V13.5H126V3Z" fill="#D1D1D6"/>
<path d="M132 3H136V13.5H132V3Z" fill="#D1D1D6"/>
<path d="M138 3H142V13.5H138V3Z" fill="#D1D1D6"/>
<path d="M144 3H148V13.5H144V3Z" fill="#D1D1D6"/>
<path d="M150 3H154V13.5H150V3Z" fill="#D1D1D6"/>
<path d="M156 3H160V13.5H156V3Z" fill="#D1D1D6"/>
<path d="M162 3H166V13.5H162V3Z" fill="#D1D1D6"/>
<path d="M168 3H172V13.5H168V3Z" fill="#D1D1D6"/>
<path d="M174 3H178V13.5H174V3Z" fill="#D1D1D6"/>
<path d="M180 3H184V13.5H180V3Z" fill="#D1D1D6"/>
<path d="M186 3H190V13.5H186V3Z" fill="#D1D1D6"/>
<path d="M192 3H196V13.5H192V3Z" fill="#D1D1D6"/>
<path d="M198 3H202V13.5H198V3Z" fill="#D1D1D6"/>
<path d="M204 3H208V13.5H204V3Z" fill="#D1D1D6"/>
<path d="M210 3H214V13.5H210V3Z" fill="#D1D1D6"/>
<path d="M216 3H220V13.5H216V3Z" fill="#D1D1D6"/>
<path d="M222 3H226V13.5H222V3Z" fill="#D1D1D6"/>
<path d="M228 3H232V13.5H228V3Z" fill="#D1D1D6"/>
<path d="M234 3H238V13.5H234V3Z" fill="#D1D1D6"/>
<path d="M240 3H244V13.5H240V3Z" fill="#D1D1D6"/>
</g>
<g opacity="0.5">
<path d="M0 16.5H4V27H0V16.5Z" fill="#D1D1D6"/>
<path d="M6 16.5H10V27H6V16.5Z" fill="#D1D1D6"/>
<path d="M12 16.5H16V27H12V16.5Z" fill="#D1D1D6"/>
<path d="M18 16.5H22V27H18V16.5Z" fill="#D1D1D6"/>
<path d="M24 16.5H28V27H24V16.5Z" fill="#D1D1D6"/>
<path d="M30 16.5H34V27H30V16.5Z" fill="#D1D1D6"/>
<path d="M36 16.5H40V27H36V16.5Z" fill="#D1D1D6"/>
<path d="M42 16.5H46V27H42V16.5Z" fill="#D1D1D6"/>
<path d="M48 16.5H52V27H48V16.5Z" fill="#D1D1D6"/>
<path d="M54 16.5H58V27H54V16.5Z" fill="#D1D1D6"/>
<path d="M60 16.5H64V27H60V16.5Z" fill="#D1D1D6"/>
<path d="M66 16.5H70V27H66V16.5Z" fill="#D1D1D6"/>
<path d="M72 16.5H76V27H72V16.5Z" fill="#D1D1D6"/>
<path d="M78 16.5H82V27H78V16.5Z" fill="#D1D1D6"/>
<path d="M84 16.5H88V27H84V16.5Z" fill="#D1D1D6"/>
<path d="M90 16.5H94V27H90V16.5Z" fill="#D1D1D6"/>
<path d="M96 16.5H100V27H96V16.5Z" fill="#D1D1D6"/>
<path d="M102 16.5H106V27H102V16.5Z" fill="#D1D1D6"/>
<path d="M108 16.5H112V27H108V16.5Z" fill="#D1D1D6"/>
<path d="M114 16.5H118V27H114V16.5Z" fill="#D1D1D6"/>
<path d="M120 16.5H124V27H120V16.5Z" fill="#D1D1D6"/>
<path d="M126 16.5H130V27H126V16.5Z" fill="#D1D1D6"/>
<path d="M132 16.5H136V27H132V16.5Z" fill="#D1D1D6"/>
<path d="M138 16.5H142V27H138V16.5Z" fill="#D1D1D6"/>
<path d="M144 16.5H148V27H144V16.5Z" fill="#D1D1D6"/>
<path d="M150 16.5H154V27H150V16.5Z" fill="#D1D1D6"/>
<path d="M156 16.5H160V27H156V16.5Z" fill="#D1D1D6"/>
<path d="M162 16.5H166V27H162V16.5Z" fill="#D1D1D6"/>
<path d="M168 16.5H172V27H168V16.5Z" fill="#D1D1D6"/>
<path d="M174 16.5H178V27H174V16.5Z" fill="#D1D1D6"/>
<path d="M180 16.5H184V27H180V16.5Z" fill="#D1D1D6"/>
<path d="M186 16.5H190V27H186V16.5Z" fill="#D1D1D6"/>
<path d="M192 16.5H196V27H192V16.5Z" fill="#D1D1D6"/>
<path d="M198 16.5H202V27H198V16.5Z" fill="#D1D1D6"/>
<path d="M204 16.5H208V27H204V16.5Z" fill="#D1D1D6"/>
<path d="M210 16.5H214V27H210V16.5Z" fill="#D1D1D6"/>
<path d="M216 16.5H220V27H216V16.5Z" fill="#D1D1D6"/>
<path d="M222 16.5H226V27H222V16.5Z" fill="#D1D1D6"/>
<path d="M228 16.5H232V27H228V16.5Z" fill="#D1D1D6"/>
<path d="M234 16.5H238V27H234V16.5Z" fill="#D1D1D6"/>
<path d="M240 16.5H244V27H240V16.5Z" fill="#D1D1D6"/>
</g>
</g>
<path d="M0 0V1H60V0V-1H0V0ZM60 30V29H0V30V31H60V30Z" fill="black" fill-opacity="0.5" mask="url(#path-1-inside-1_490_591)"/>
<defs>
<clipPath id="clip0_490_591">
<path d="M0 0H60V30H0V0Z" fill="white"/>
</clipPath>
</defs>
</svg>
