<svg width="60" height="30" viewBox="0 0 60 30" fill="none" xmlns="http://www.w3.org/2000/svg">
<g clip-path="url(#clip0_490_596)">
<mask id="path-1-inside-1_490_596" fill="white">
<path d="M0 0H60V30H0V0Z"/>
</mask>
<path d="M0 0H60V30H0V0Z" fill="white"/>
<g opacity="0.5">
<path d="M0 3H4V9.66667H0V3Z" fill="#D1D1D6"/>
<path d="M6 3H10V9.66667H6V3Z" fill="#D1D1D6"/>
<path d="M12 3H16V9.66667H12V3Z" fill="#D1D1D6"/>
<path d="M18 3H22V9.66667H18V3Z" fill="#D1D1D6"/>
<path d="M24 3H28V9.66667H24V3Z" fill="#D1D1D6"/>
<path d="M30 3H34V9.66667H30V3Z" fill="#D1D1D6"/>
<path d="M36 3H40V9.66667H36V3Z" fill="#D1D1D6"/>
<path d="M42 3H46V9.66667H42V3Z" fill="#D1D1D6"/>
<path d="M48 3H52V9.66667H48V3Z" fill="#D1D1D6"/>
<path d="M54 3H58V9.66667H54V3Z" fill="#D1D1D6"/>
<path d="M60 3H64V9.66667H60V3Z" fill="#D1D1D6"/>
<path d="M66 3H70V9.66667H66V3Z" fill="#D1D1D6"/>
<path d="M72 3H76V9.66667H72V3Z" fill="#D1D1D6"/>
<path d="M78 3H82V9.66667H78V3Z" fill="#D1D1D6"/>
<path d="M84 3H88V9.66667H84V3Z" fill="#D1D1D6"/>
<path d="M90 3H94V9.66667H90V3Z" fill="#D1D1D6"/>
<path d="M96 3H100V9.66667H96V3Z" fill="#D1D1D6"/>
<path d="M102 3H106V9.66667H102V3Z" fill="#D1D1D6"/>
<path d="M108 3H112V9.66667H108V3Z" fill="#D1D1D6"/>
<path d="M114 3H118V9.66667H114V3Z" fill="#D1D1D6"/>
<path d="M120 3H124V9.66667H120V3Z" fill="#D1D1D6"/>
<path d="M126 3H130V9.66667H126V3Z" fill="#D1D1D6"/>
<path d="M132 3H136V9.66667H132V3Z" fill="#D1D1D6"/>
<path d="M138 3H142V9.66667H138V3Z" fill="#D1D1D6"/>
<path d="M144 3H148V9.66667H144V3Z" fill="#D1D1D6"/>
<path d="M150 3H154V9.66667H150V3Z" fill="#D1D1D6"/>
<path d="M156 3H160V9.66667H156V3Z" fill="#D1D1D6"/>
<path d="M162 3H166V9.66667H162V3Z" fill="#D1D1D6"/>
<path d="M168 3H172V9.66667H168V3Z" fill="#D1D1D6"/>
<path d="M174 3H178V9.66667H174V3Z" fill="#D1D1D6"/>
<path d="M180 3H184V9.66667H180V3Z" fill="#D1D1D6"/>
<path d="M186 3H190V9.66667H186V3Z" fill="#D1D1D6"/>
<path d="M192 3H196V9.66667H192V3Z" fill="#D1D1D6"/>
<path d="M198 3H202V9.66667H198V3Z" fill="#D1D1D6"/>
<path d="M204 3H208V9.66667H204V3Z" fill="#D1D1D6"/>
<path d="M210 3H214V9.66667H210V3Z" fill="#D1D1D6"/>
<path d="M216 3H220V9.66667H216V3Z" fill="#D1D1D6"/>
<path d="M222 3H226V9.66667H222V3Z" fill="#D1D1D6"/>
<path d="M228 3H232V9.66667H228V3Z" fill="#D1D1D6"/>
<path d="M234 3H238V9.66667H234V3Z" fill="#D1D1D6"/>
<path d="M240 3H244V9.66667H240V3Z" fill="#D1D1D6"/>
</g>
<g opacity="0.5">
<path d="M0 11.6667H4V18.3334H0V11.6667Z" fill="#D1D1D6"/>
<path d="M6 11.6667H10V18.3334H6V11.6667Z" fill="#D1D1D6"/>
<path d="M12 11.6667H16V18.3334H12V11.6667Z" fill="#D1D1D6"/>
<path d="M18 11.6667H22V18.3334H18V11.6667Z" fill="#D1D1D6"/>
<path d="M24 11.6667H28V18.3334H24V11.6667Z" fill="#D1D1D6"/>
<path d="M30 11.6667H34V18.3334H30V11.6667Z" fill="#D1D1D6"/>
<path d="M36 11.6667H40V18.3334H36V11.6667Z" fill="#D1D1D6"/>
<path d="M42 11.6667H46V18.3334H42V11.6667Z" fill="#D1D1D6"/>
<path d="M48 11.6667H52V18.3334H48V11.6667Z" fill="#D1D1D6"/>
<path d="M54 11.6667H58V18.3334H54V11.6667Z" fill="#D1D1D6"/>
<path d="M60 11.6667H64V18.3334H60V11.6667Z" fill="#D1D1D6"/>
<path d="M66 11.6667H70V18.3334H66V11.6667Z" fill="#D1D1D6"/>
<path d="M72 11.6667H76V18.3334H72V11.6667Z" fill="#D1D1D6"/>
<path d="M78 11.6667H82V18.3334H78V11.6667Z" fill="#D1D1D6"/>
<path d="M84 11.6667H88V18.3334H84V11.6667Z" fill="#D1D1D6"/>
<path d="M90 11.6667H94V18.3334H90V11.6667Z" fill="#D1D1D6"/>
<path d="M96 11.6667H100V18.3334H96V11.6667Z" fill="#D1D1D6"/>
<path d="M102 11.6667H106V18.3334H102V11.6667Z" fill="#D1D1D6"/>
<path d="M108 11.6667H112V18.3334H108V11.6667Z" fill="#D1D1D6"/>
<path d="M114 11.6667H118V18.3334H114V11.6667Z" fill="#D1D1D6"/>
<path d="M120 11.6667H124V18.3334H120V11.6667Z" fill="#D1D1D6"/>
<path d="M126 11.6667H130V18.3334H126V11.6667Z" fill="#D1D1D6"/>
<path d="M132 11.6667H136V18.3334H132V11.6667Z" fill="#D1D1D6"/>
<path d="M138 11.6667H142V18.3334H138V11.6667Z" fill="#D1D1D6"/>
<path d="M144 11.6667H148V18.3334H144V11.6667Z" fill="#D1D1D6"/>
<path d="M150 11.6667H154V18.3334H150V11.6667Z" fill="#D1D1D6"/>
<path d="M156 11.6667H160V18.3334H156V11.6667Z" fill="#D1D1D6"/>
<path d="M162 11.6667H166V18.3334H162V11.6667Z" fill="#D1D1D6"/>
<path d="M168 11.6667H172V18.3334H168V11.6667Z" fill="#D1D1D6"/>
<path d="M174 11.6667H178V18.3334H174V11.6667Z" fill="#D1D1D6"/>
<path d="M180 11.6667H184V18.3334H180V11.6667Z" fill="#D1D1D6"/>
<path d="M186 11.6667H190V18.3334H186V11.6667Z" fill="#D1D1D6"/>
<path d="M192 11.6667H196V18.3334H192V11.6667Z" fill="#D1D1D6"/>
<path d="M198 11.6667H202V18.3334H198V11.6667Z" fill="#D1D1D6"/>
<path d="M204 11.6667H208V18.3334H204V11.6667Z" fill="#D1D1D6"/>
<path d="M210 11.6667H214V18.3334H210V11.6667Z" fill="#D1D1D6"/>
<path d="M216 11.6667H220V18.3334H216V11.6667Z" fill="#D1D1D6"/>
<path d="M222 11.6667H226V18.3334H222V11.6667Z" fill="#D1D1D6"/>
<path d="M228 11.6667H232V18.3334H228V11.6667Z" fill="#D1D1D6"/>
<path d="M234 11.6667H238V18.3334H234V11.6667Z" fill="#D1D1D6"/>
<path d="M240 11.6667H244V18.3334H240V11.6667Z" fill="#D1D1D6"/>
</g>
<g opacity="0.5">
<path d="M0 20.3333H4V27H0V20.3333Z" fill="#D1D1D6"/>
<path d="M6 20.3333H10V27H6V20.3333Z" fill="#D1D1D6"/>
<path d="M12 20.3333H16V27H12V20.3333Z" fill="#D1D1D6"/>
<path d="M18 20.3333H22V27H18V20.3333Z" fill="#D1D1D6"/>
<path d="M24 20.3333H28V27H24V20.3333Z" fill="#D1D1D6"/>
<path d="M30 20.3333H34V27H30V20.3333Z" fill="#D1D1D6"/>
<path d="M36 20.3333H40V27H36V20.3333Z" fill="#D1D1D6"/>
<path d="M42 20.3333H46V27H42V20.3333Z" fill="#D1D1D6"/>
<path d="M48 20.3333H52V27H48V20.3333Z" fill="#D1D1D6"/>
<path d="M54 20.3333H58V27H54V20.3333Z" fill="#D1D1D6"/>
<path d="M60 20.3333H64V27H60V20.3333Z" fill="#D1D1D6"/>
<path d="M66 20.3333H70V27H66V20.3333Z" fill="#D1D1D6"/>
<path d="M72 20.3333H76V27H72V20.3333Z" fill="#D1D1D6"/>
<path d="M78 20.3333H82V27H78V20.3333Z" fill="#D1D1D6"/>
<path d="M84 20.3333H88V27H84V20.3333Z" fill="#D1D1D6"/>
<path d="M90 20.3333H94V27H90V20.3333Z" fill="#D1D1D6"/>
<path d="M96 20.3333H100V27H96V20.3333Z" fill="#D1D1D6"/>
<path d="M102 20.3333H106V27H102V20.3333Z" fill="#D1D1D6"/>
<path d="M108 20.3333H112V27H108V20.3333Z" fill="#D1D1D6"/>
<path d="M114 20.3333H118V27H114V20.3333Z" fill="#D1D1D6"/>
<path d="M120 20.3333H124V27H120V20.3333Z" fill="#D1D1D6"/>
<path d="M126 20.3333H130V27H126V20.3333Z" fill="#D1D1D6"/>
<path d="M132 20.3333H136V27H132V20.3333Z" fill="#D1D1D6"/>
<path d="M138 20.3333H142V27H138V20.3333Z" fill="#D1D1D6"/>
<path d="M144 20.3333H148V27H144V20.3333Z" fill="#D1D1D6"/>
<path d="M150 20.3333H154V27H150V20.3333Z" fill="#D1D1D6"/>
<path d="M156 20.3333H160V27H156V20.3333Z" fill="#D1D1D6"/>
<path d="M162 20.3333H166V27H162V20.3333Z" fill="#D1D1D6"/>
<path d="M168 20.3333H172V27H168V20.3333Z" fill="#D1D1D6"/>
<path d="M174 20.3333H178V27H174V20.3333Z" fill="#D1D1D6"/>
<path d="M180 20.3333H184V27H180V20.3333Z" fill="#D1D1D6"/>
<path d="M186 20.3333H190V27H186V20.3333Z" fill="#D1D1D6"/>
<path d="M192 20.3333H196V27H192V20.3333Z" fill="#D1D1D6"/>
<path d="M198 20.3333H202V27H198V20.3333Z" fill="#D1D1D6"/>
<path d="M204 20.3333H208V27H204V20.3333Z" fill="#D1D1D6"/>
<path d="M210 20.3333H214V27H210V20.3333Z" fill="#D1D1D6"/>
<path d="M216 20.3333H220V27H216V20.3333Z" fill="#D1D1D6"/>
<path d="M222 20.3333H226V27H222V20.3333Z" fill="#D1D1D6"/>
<path d="M228 20.3333H232V27H228V20.3333Z" fill="#D1D1D6"/>
<path d="M234 20.3333H238V27H234V20.3333Z" fill="#D1D1D6"/>
<path d="M240 20.3333H244V27H240V20.3333Z" fill="#D1D1D6"/>
</g>
</g>
<path d="M0 0V1H60V0V-1H0V0ZM60 30V29H0V30V31H60V30Z" fill="black" fill-opacity="0.5" mask="url(#path-1-inside-1_490_596)"/>
<defs>
<clipPath id="clip0_490_596">
<path d="M0 0H60V30H0V0Z" fill="white"/>
</clipPath>
</defs>
</svg>
